<svg xmlns="http://www.w3.org/2000/svg" width="1280" height="720" viewBox="0 0 1280 720">
  <!-- Background -->
  <rect width="1280" height="720" fill="#F9FAFB"/>

  <!-- Header -->
  <rect width="1280" height="70" fill="#FFFFFF" stroke="#E5E7EB" stroke-width="1"/>
  <circle cx="60" cy="35" r="20" fill="#3B82F6"/>
  <text x="90" y="42" font-family="Arial, sans-serif" font-size="24" font-weight="bold" fill="#1F2937">Wandura</text>
  <rect x="1150" y="20" width="100" height="35" rx="6" fill="#3B82F6"/>
  <text x="1170" y="43" font-family="Arial, sans-serif" font-size="14" fill="#FFFFFF">Dashboard</text>

  <!-- Page Title -->
  <text x="80" y="120" font-family="Arial, sans-serif" font-size="28" font-weight="bold" fill="#1F2937">Material Cost Estimator</text>

  <!-- Two Column Layout -->
  <!-- Left Column - Add Material Form -->
  <rect x="60" y="150" width="560" height="350" rx="8" fill="#FFFFFF" stroke="#E5E7EB"/>
  <text x="90" y="190" font-family="Arial, sans-serif" font-size="18" font-weight="bold" fill="#1F2937">Add Material</text>

  <!-- Form Fields -->
  <text x="90" y="230" font-family="Arial, sans-serif" font-size="14" fill="#374151">Material Name</text>
  <rect x="90" y="240" width="500" height="40" rx="6" fill="#FFFFFF" stroke="#D1D5DB"/>
  <text x="105" y="265" font-family="Arial, sans-serif" font-size="14" fill="#9CA3AF">e.g., Portland Cement</text>

  <text x="90" y="310" font-family="Arial, sans-serif" font-size="14" fill="#374151">Quantity</text>
  <rect x="90" y="320" width="240" height="40" rx="6" fill="#FFFFFF" stroke="#D1D5DB"/>
  <text x="105" y="345" font-family="Arial, sans-serif" font-size="14" fill="#1F2937">1</text>

  <text x="350" y="310" font-family="Arial, sans-serif" font-size="14" fill="#374151">Unit</text>
  <rect x="350" y="320" width="240" height="40" rx="6" fill="#FFFFFF" stroke="#D1D5DB"/>
  <text x="365" y="345" font-family="Arial, sans-serif" font-size="14" fill="#1F2937">bag</text>

  <text x="90" y="390" font-family="Arial, sans-serif" font-size="14" fill="#374151">Unit Price ($)</text>
  <rect x="90" y="400" width="500" height="40" rx="6" fill="#FFFFFF" stroke="#D1D5DB"/>
  <text x="105" y="425" font-family="Arial, sans-serif" font-size="14" fill="#9CA3AF">0.00</text>

  <rect x="90" y="460" width="500" height="40" rx="6" fill="#3B82F6"/>
  <text x="280" y="486" font-family="Arial, sans-serif" font-size="14" fill="#FFFFFF">➕ Add Material</text>

  <!-- Right Column - Estimate Summary -->
  <rect x="660" y="150" width="560" height="350" rx="8" fill="#FFFFFF" stroke="#E5E7EB"/>
  <text x="690" y="190" font-family="Arial, sans-serif" font-size="18" font-weight="bold" fill="#1F2937">Estimate Summary</text>

  <!-- Material Items -->
  <rect x="680" y="210" width="520" height="50" rx="4" fill="#F9FAFB"/>
  <text x="700" y="235" font-family="Arial, sans-serif" font-size="14" font-weight="bold" fill="#1F2937">Portland Cement</text>
  <text x="700" y="252" font-family="Arial, sans-serif" font-size="12" fill="#6B7280">10 bag × $12.99</text>
  <text x="1100" y="240" font-family="Arial, sans-serif" font-size="14" font-weight="bold" fill="#1F2937">$129.90</text>
  <text x="1160" y="240" font-family="Arial, sans-serif" font-size="14" fill="#EF4444">🗑</text>

  <rect x="680" y="270" width="520" height="50" rx="4" fill="#F9FAFB"/>
  <text x="700" y="295" font-family="Arial, sans-serif" font-size="14" font-weight="bold" fill="#1F2937">River Sand</text>
  <text x="700" y="312" font-family="Arial, sans-serif" font-size="12" fill="#6B7280">2 ton × $45.00</text>
  <text x="1100" y="300" font-family="Arial, sans-serif" font-size="14" font-weight="bold" fill="#1F2937">$90.00</text>
  <text x="1160" y="300" font-family="Arial, sans-serif" font-size="14" fill="#EF4444">🗑</text>

  <rect x="680" y="330" width="520" height="50" rx="4" fill="#F9FAFB"/>
  <text x="700" y="355" font-family="Arial, sans-serif" font-size="14" font-weight="bold" fill="#1F2937">Ceramic Tiles</text>
  <text x="700" y="372" font-family="Arial, sans-serif" font-size="12" fill="#6B7280">5 box × $28.50</text>
  <text x="1100" y="360" font-family="Arial, sans-serif" font-size="14" font-weight="bold" fill="#1F2937">$142.50</text>
  <text x="1160" y="360" font-family="Arial, sans-serif" font-size="14" fill="#EF4444">🗑</text>

  <!-- Total -->
  <line x1="680" y1="400" x2="1200" y2="400" stroke="#E5E7EB" stroke-width="2"/>
  <text x="690" y="435" font-family="Arial, sans-serif" font-size="16" font-weight="bold" fill="#1F2937">Total Estimated Cost:</text>
  <text x="1050" y="435" font-family="Arial, sans-serif" font-size="24" font-weight="bold" fill="#3B82F6">$362.40</text>

  <!-- Action Buttons -->
  <rect x="680" y="455" width="160" height="35" rx="6" fill="#FFFFFF" stroke="#E5E7EB"/>
  <text x="710" y="478" font-family="Arial, sans-serif" font-size="13" fill="#374151">Save Estimate</text>

  <rect x="860" y="455" width="160" height="35" rx="6" fill="#FFFFFF" stroke="#E5E7EB"/>
  <text x="885" y="478" font-family="Arial, sans-serif" font-size="13" fill="#374151">Export to PDF</text>

  <rect x="1040" y="455" width="160" height="35" rx="6" fill="#3B82F6"/>
  <text x="1070" y="478" font-family="Arial, sans-serif" font-size="13" fill="#FFFFFF">Order Materials</text>

  <!-- Common Materials Reference Section -->
  <rect x="60" y="520" width="1160" height="180" rx="8" fill="#FFFFFF" stroke="#E5E7EB"/>
  <text x="90" y="560" font-family="Arial, sans-serif" font-size="18" font-weight="bold" fill="#1F2937">Common Construction Materials</text>
  <text x="90" y="580" font-family="Arial, sans-serif" font-size="12" fill="#6B7280">Click to add to your estimate</text>

  <!-- Material Quick Add Cards -->
  <rect x="90" y="600" width="170" height="80" rx="6" fill="#F9FAFB" stroke="#E5E7EB"/>
  <text x="110" y="630" font-family="Arial, sans-serif" font-size="14" font-weight="bold" fill="#1F2937">Portland Cement</text>
  <text x="110" y="655" font-family="Arial, sans-serif" font-size="13" fill="#3B82F6">$12.99/bag</text>

  <rect x="280" y="600" width="170" height="80" rx="6" fill="#F9FAFB" stroke="#E5E7EB"/>
  <text x="300" y="630" font-family="Arial, sans-serif" font-size="14" font-weight="bold" fill="#1F2937">River Sand</text>
  <text x="300" y="655" font-family="Arial, sans-serif" font-size="13" fill="#3B82F6">$45.00/ton</text>

  <rect x="470" y="600" width="170" height="80" rx="6" fill="#F9FAFB" stroke="#E5E7EB"/>
  <text x="490" y="630" font-family="Arial, sans-serif" font-size="14" font-weight="bold" fill="#1F2937">Gravel</text>
  <text x="490" y="655" font-family="Arial, sans-serif" font-size="13" fill="#3B82F6">$38.00/ton</text>

  <rect x="660" y="600" width="170" height="80" rx="6" fill="#F9FAFB" stroke="#E5E7EB"/>
  <text x="680" y="630" font-family="Arial, sans-serif" font-size="14" font-weight="bold" fill="#1F2937">Concrete Blocks</text>
  <text x="680" y="655" font-family="Arial, sans-serif" font-size="13" fill="#3B82F6">$2.25/piece</text>

  <rect x="850" y="600" width="170" height="80" rx="6" fill="#F9FAFB" stroke="#E5E7EB"/>
  <text x="870" y="630" font-family="Arial, sans-serif" font-size="14" font-weight="bold" fill="#1F2937">Ceramic Tiles</text>
  <text x="870" y="655" font-family="Arial, sans-serif" font-size="13" fill="#3B82F6">$28.50/box</text>

  <rect x="1040" y="600" width="170" height="80" rx="6" fill="#F9FAFB" stroke="#E5E7EB"/>
  <text x="1060" y="630" font-family="Arial, sans-serif" font-size="14" font-weight="bold" fill="#1F2937">Steel Rebar #4</text>
  <text x="1060" y="655" font-family="Arial, sans-serif" font-size="13" fill="#3B82F6">$8.75/piece</text>
</svg>
